<svg width="20" height="20" viewBox="0 0 20 20" fill="none" xmlns="http://www.w3.org/2000/svg">
<path fill-rule="evenodd" clip-rule="evenodd" d="M16.1739 2.29289C16.5644 1.90237 17.1976 1.90237 17.5881 2.29289L17.7034 2.4082C18.0939 2.79873 18.0939 3.43189 17.7034 3.82242L11.5277 9.99815L17.7034 16.1739C18.094 16.5644 18.094 17.1976 17.7034 17.5881L17.5881 17.7034C17.1976 18.0939 16.5644 18.0939 16.1739 17.7034L9.99816 11.5277L3.82241 17.7034C3.43189 18.0939 2.79873 18.0939 2.4082 17.7034L2.29289 17.5881C1.90237 17.1976 1.90237 16.5644 2.29289 16.1739L8.46864 9.99815L2.29291 3.82242C1.90239 3.43189 1.90238 2.79873 2.29291 2.4082L2.40822 2.29289C2.79874 1.90237 3.43191 1.90237 3.82243 2.29289L9.99816 8.46863L16.1739 2.29289Z" fill="white"/>
</svg>
