<svg width="20" height="20" viewBox="0 0 20 20" fill="none" xmlns="http://www.w3.org/2000/svg">
<path fill-rule="evenodd" clip-rule="evenodd" d="M14.1909 12.608H13.3572L13.0618 12.3231C14.328 10.8458 14.9823 8.83036 14.6235 6.68827C14.1275 3.75477 11.6794 1.41219 8.72484 1.05342C4.26128 0.504709 0.504709 4.26128 1.05342 8.72484C1.41219 11.6794 3.75477 14.1275 6.68827 14.6235C8.83036 14.9823 10.8458 14.328 12.3231 13.0618L12.608 13.3572V14.1909L17.1032 18.6755C17.5359 19.1082 18.2323 19.1082 18.665 18.6755L18.6755 18.665C19.1082 18.2323 19.1082 17.5359 18.6755 17.1032L14.1909 12.608ZM7.85954 12.608C5.23205 12.608 3.11107 10.487 3.11107 7.85956C3.11107 5.23207 5.23205 3.11109 7.85954 3.11109C10.487 3.11109 12.608 5.23207 12.608 7.85956C12.608 10.487 10.487 12.608 7.85954 12.608Z" fill="white"/>
</svg>
